<?xml version="1.0" encoding="iso-8859-1"?>
<svg xmlns="http://www.w3.org/2000/svg" xmlns:xlink="http://www.w3.org/1999/xlink" version="1.1" viewBox="0 0 32 32" enable-background="new 0 0 32 32" width="512px" height="512px">
  <g>
    <path d="m22.9,7.9c-0.2,0-0.4,0-0.6,0.2l-8.8,4.9c-0.2,0.1-0.3,0.3-0.5,0.5l-4.9,8.8c-0.5,0.8 0.2,1.8 1,1.8 0.2,0 0.4,0 0.6-0.2l8.8-4.9c0.2-0.1 0.3-0.3 0.5-0.5l4.9-8.8c0.5-0.8-0.2-1.8-1-1.8zm-3,4.8l-2.1,3.7c-0.3,0.6-0.9,1.1-1.5,1.5-1.5,0.8-3.1-0.8-2.3-2.3 0.3-0.6 0.9-1.1 1.5-1.5l3.7-2.1c0.5-0.2 1,0.3 0.7,0.7z" fill="#03688c"/>
    <path d="m32,16c0-8.8-7.2-16-16-16s-16,7.2-16,16 7.2,16 16,16c5.9,0 8.8,0 10.6-1.3 1.5-1.1 2.2-2.7 4.3-8.9 0.7-1.8 1.1-3.7 1.1-5.8zm-2.3,3c-1.4,4.9-4.2,5.8-6.2,7.2-2.6,1.8-5,3.9-7.5,3.9-7.7,0-14-6.3-14-14s6.3-14 14-14 14,6.3 14,14c0,0.9-0.1,1.9-0.3,2.9z" fill="#03688c"/>
  </g>
</svg>
