<?xml version="1.0" encoding="iso-8859-1"?>
<svg xmlns="http://www.w3.org/2000/svg" xmlns:xlink="http://www.w3.org/1999/xlink" version="1.1" viewBox="0 0 32 32" enable-background="new 0 0 32 32" width="512px" height="512px">
  <path d="M23.5,2c-0.9,0-1.7,0.1-2.5,0.4c-3.5,1.1-2.8,1.3-5,1.3s-1.5-0.2-5-1.3C10.2,2.2,9.4,2,8.5,2  C3.8,2,0,5.8,0,10.5c0,10,6.8,13.8,10.8,16.3C12.5,27.9,14,30,16,30s3.5-2.2,5.2-3.2c4-2.5,10.8-6.3,10.8-16.3C32,5.8,28.2,2,23.5,2  z M7.1,21.8C4.4,19.5,2,16.1,2,10.5C2,6.9,4.9,4,8.5,4c0.7,0,1.3,0.1,1.9,0.3C12.6,5,13.7,8.2,16,8.2s3.4-3.2,5.6-3.9  C22.2,4.1,22.9,4,23.5,4c3.6,0,6.5,2.9,6.5,6.5C30,19,13.5,27.3,7.1,21.8z" fill="#03688c"/>
</svg>
